<svg viewBox="0 0 500 500" xmlns="http://www.w3.org/2000/svg" fill-rule="evenodd" clip-rule="evenodd" stroke-linejoin="round" stroke-miterlimit="2"><path d="M250 83.333c52.525 0 92.593 17.408 120.37 52.315 27.778 34.815 41.667 82.87 41.667 144.167 0 32.407-3.704 60.185-11.111 83.333-7.407 23.148-18.056 42.13-31.944 56.944-13.889 14.815-30.556 25.463-50 31.945-19.445 6.481-42.13 9.722-68.056 9.722-29.63 0-54.166-3.704-73.61-11.111-19.445-7.408-35.186-18.982-47.223-34.723-12.037-15.74-20.37-35.648-25-59.722-4.63-24.074-6.944-52.315-6.944-84.722 0-56.482 14.352-101.852 43.055-136.111C169.907 100.926 207.407 83.333 250 83.333zm0 29.167c-33.333 0-61.574 13.426-84.722 40.278-23.148 26.852-34.722 64.352-34.722 112.5 0 25 1.852 47.222 5.555 66.667 3.704 19.444 9.723 35.648 18.056 48.61 8.333 12.964 19.444 22.686 33.333 29.167 13.889 6.482 31.482 9.722 52.778 9.722 19.444 0 36.11-2.777 50-8.333 13.889-5.556 25-13.89 33.333-25 8.334-11.11 14.352-25.926 18.056-44.444 3.704-18.519 5.555-41.667 5.555-69.445 0-42.592-10.648-76.389-31.944-101.388-21.296-25-42.593-37.5-63.89-37.5h-1.388z" fill="#009ee3"/><path d="M334.225 170.833c-3.116-2.077-7.27-3.116-12.46-3.116-5.193 0-10.906 1.039-17.135 3.116-6.23 2.077-12.46 5.71-18.692 10.904l-31.154 26.48-18.692-15.577c-7.27-6.23-15.577-10.904-24.923-14.02-9.346-3.115-18.692-3.115-28.038 0-9.347 3.116-17.135 7.79-23.366 14.02-6.23 6.23-9.346 14.02-9.346 23.365 0 7.27 1.558 13.5 4.673 18.692l43.616 71.654-29.597 45.173c-6.23 9.346-7.788 18.692-4.673 28.038 3.116 9.347 9.346 15.577 18.693 18.693 9.346 3.115 18.692 1.557 28.038-4.673l29.596-45.173 14.02 9.346c10.384 6.23 22.326 9.346 35.826 9.346 13.5 0 25.442-3.116 35.827-9.346 10.385-6.23 18.173-15.058 23.366-26.48 5.192-11.424 7.788-24.405 7.788-38.943 0-12.46-2.077-22.846-6.23-31.154l29.596-26.48c6.23-6.23 9.346-13.5 9.346-21.808 0-12.462-2.596-22.327-7.788-29.596-5.192-7.27-11.423-10.904-18.692-10.904-7.27 0-13.5 1.557-18.693 4.673l-26.48 15.577 10.903-10.904c6.23-5.192 9.346-11.423 9.346-18.692 0-5.192-1.038-9.346-3.115-12.462-2.077-3.115-6.23-4.673-12.46-4.673h-3.116zm-76.327 38.943c-3.115 0-5.712 1.038-7.788 3.115-2.077 2.077-3.116 4.673-3.116 7.788 0 3.116 1.04 5.712 3.116 7.789 2.076 2.077 4.673 3.115 7.788 3.115 3.116 0 5.712-1.038 7.789-3.115 2.077-2.077 3.115-4.673 3.115-7.79 0-3.114-1.038-5.71-3.115-7.787-2.077-2.077-4.673-3.115-7.79-3.115z" fill="#009ee3"/><text x="50%" y="420" text-anchor="middle" font-family="Arial, sans-serif" font-weight="bold" font-size="60" fill="#009ee3" letter-spacing="-1">mercado<tspan fill="#009ee3" x="50%" dy="60">pago</tspan></text></svg>